
<svg version="1.0" xmlns="http://www.w3.org/2000/svg"
 width="500.000000pt" height="500.000000pt" viewBox="0 0 500.000000 500.000000"
 preserveAspectRatio="xMidYMid meet">

<g transform="translate(0.000000,500.000000) scale(0.100000,-0.100000)"
fill="#000000" stroke="none">
<path d="M2335 4080 c-530 -56 -1003 -382 -1249 -859 -40 -78 -106 -248 -106
-272 0 -6 12 -9 27 -7 24 3 31 13 63 98 122 318 330 569 635 765 184 118 461
204 710 220 291 19 612 -60 870 -213 199 -118 418 -337 530 -527 7 -12 20 -16
43 -13 l33 3 -71 108 c-40 60 -114 152 -168 209 -345 359 -832 539 -1317 488z"/>
<path d="M2340 3865 c-8 -2 -49 -9 -90 -15 -340 -55 -694 -288 -891 -585 -49
-74 -154 -283 -146 -292 3 -3 35 -2 71 2 l66 7 20 45 c70 159 223 348 376 465
489 374 1192 327 1626 -107 48 -48 97 -102 110 -121 23 -34 23 -34 83 -28 33
4 65 9 72 13 17 9 -81 137 -173 227 -179 176 -380 289 -629 355 -109 28 -136
32 -300 35 -99 1 -187 1 -195 -1z"/>
<path d="M1867 2868 c-18 -24 -80 -104 -137 -178 -57 -74 -100 -124 -96 -110
15 54 18 138 7 173 -7 20 -28 50 -46 66 -147 129 -400 -16 -400 -229 1 -79 24
-132 74 -166 45 -30 119 -33 144 -6 32 35 16 92 -25 92 -32 0 -68 45 -68 86 0
109 111 184 176 118 32 -31 33 -24 -41 -289 -30 -108 -55 -209 -55 -225 0 -60
75 -74 112 -21 8 11 32 86 54 166 21 80 41 145 44 145 3 0 50 -87 105 -192 64
-123 110 -199 127 -212 27 -19 31 -20 169 -4 157 18 179 29 179 84 0 50 -19
55 -153 42 -86 -9 -119 -9 -129 0 -7 6 -47 76 -88 155 l-74 143 117 152 c65
83 122 164 127 178 16 40 -10 74 -55 74 -28 0 -40 -7 -68 -42z"/>
<path d="M3751 2793 c-13 -12 -31 -57 -51 -128 -32 -110 -53 -147 -95 -159
-11 -3 -27 -1 -35 4 -12 8 -10 25 15 123 24 97 27 118 16 131 -28 33 -91 15
-109 -31 -20 -50 -62 -211 -62 -237 0 -85 72 -121 178 -90 18 5 21 3 16 -10
-3 -8 -22 -18 -42 -21 -168 -26 -216 -44 -252 -96 -32 -44 -43 -103 -29 -148
42 -131 209 -162 316 -59 31 30 93 158 93 192 0 11 16 17 61 22 71 8 99 29 99
74 0 34 -28 46 -86 37 -18 -3 -34 -2 -34 4 0 5 20 80 45 168 47 166 53 209 33
229 -17 17 -53 15 -77 -5z m-161 -543 c0 -22 -41 -89 -67 -110 -70 -55 -145
21 -87 88 19 23 154 42 154 22z"/>
<path d="M3140 2739 c-85 -34 -140 -122 -140 -225 0 -74 26 -119 84 -148 36
-18 44 -18 159 -3 103 12 124 18 139 37 22 27 22 40 4 65 -13 18 -20 18 -122
8 -104 -11 -144 -6 -144 17 0 4 30 12 68 15 37 4 82 14 100 22 79 37 84 157
10 203 -36 22 -114 26 -158 9z m98 -111 c2 -12 -8 -20 -38 -28 -23 -6 -49 -10
-58 -8 -14 3 -12 8 11 31 31 32 79 34 85 5z"/>
<path d="M2775 2699 c-89 -12 -124 -26 -131 -54 -13 -50 -3 -60 59 -60 31 0
57 -1 57 -4 0 -2 -31 -40 -68 -85 -37 -44 -76 -92 -85 -106 -38 -54 -11 -90
66 -90 78 1 249 25 274 38 28 15 37 45 22 73 -11 21 -16 21 -95 16 -46 -3 -84
-4 -84 0 0 3 28 39 63 82 107 129 114 144 77 181 -22 22 -42 23 -155 9z"/>
<path d="M2393 2648 c-24 -12 -37 -42 -78 -181 -24 -81 -29 -90 -60 -103 -39
-16 -65 -10 -65 15 0 10 11 55 25 101 14 46 25 96 25 112 0 36 -38 57 -74 40
-28 -12 -51 -70 -87 -209 -22 -88 -23 -93 -6 -128 10 -20 28 -40 44 -46 39
-15 147 -2 175 21 19 15 25 16 43 4 29 -19 158 -3 186 22 21 19 26 69 8 80 -6
3 -33 6 -60 5 -34 0 -49 3 -49 12 0 7 11 51 25 98 30 104 32 145 6 159 -23 12
-29 12 -58 -2z"/>
<path d="M3968 2013 c-9 -2 -26 -27 -37 -56 -116 -308 -322 -561 -606 -746
-516 -335 -1211 -316 -1717 46 -107 76 -268 236 -347 346 -54 75 -67 87 -92
87 -16 0 -29 -2 -29 -5 0 -14 108 -163 167 -231 533 -611 1456 -719 2118 -248
240 170 441 426 549 700 47 118 46 121 -6 107z"/>
<path d="M2994 1923 c12 -138 14 -143 51 -143 43 0 65 9 65 25 0 8 -14 15 -32
17 l-33 3 -9 88 c-7 78 -11 87 -29 87 -19 0 -19 -4 -13 -77z"/>
<path d="M2851 1983 l-43 -4 5 -37 c3 -20 9 -70 13 -111 l7 -74 54 6 c31 3 57
8 60 11 12 12 -11 26 -43 26 -31 0 -34 3 -34 29 0 25 4 30 27 33 18 2 29 10
31 22 4 17 0 18 -32 13 -34 -5 -36 -5 -36 24 0 26 3 29 30 29 23 0 30 4 30 20
0 11 -6 19 -12 18 -7 -1 -33 -3 -57 -5z"/>
<path d="M3678 1981 c-26 -4 -49 -9 -51 -11 -2 -3 -21 -36 -41 -75 -132 -246
-387 -465 -656 -564 -267 -98 -594 -100 -847 -5 -186 70 -338 169 -476 309
l-93 95 -67 -7 c-37 -3 -67 -10 -67 -14 0 -19 132 -169 206 -233 148 -129 312
-224 488 -281 162 -52 220 -60 441 -59 192 1 205 2 320 33 389 104 697 346
878 691 25 47 48 95 52 108 7 24 2 25 -87 13z"/>
<path d="M2714 1962 c-6 -4 -21 -26 -34 -50 -25 -45 -40 -41 -40 11 0 20 -5
27 -20 27 -23 0 -24 -2 -8 -126 10 -83 13 -94 31 -94 18 0 19 5 14 52 l-7 52
48 -46 c36 -35 52 -44 66 -39 18 7 15 13 -28 59 l-49 52 37 55 c30 45 33 55
19 55 -10 0 -23 -4 -29 -8z"/>
<path d="M2433 1925 c-5 -15 1 -92 13 -175 l6 -35 51 5 c41 4 53 9 55 24 4 17
0 18 -31 13 -37 -6 -47 3 -47 44 0 15 7 19 36 19 28 0 35 3 32 18 -2 12 -13
17 -38 17 -26 0 -35 5 -38 19 -5 22 13 36 46 36 13 0 22 6 22 15 0 22 -98 21
-107 0z"/>
<path d="M2268 1913 c-27 -7 -22 -33 6 -33 22 0 24 -4 32 -87 8 -78 11 -88 30
-91 19 -3 20 0 13 55 -14 108 -11 133 11 133 11 0 20 7 20 15 0 11 -11 15 -47
14 -27 -1 -56 -3 -65 -6z"/>
</g>
</svg>
